#!OML:ASF C:\Vicon Data\Big\jianyuan-13\jianyuan\Session 1\Capture.male.ASF
:FULLY-SPECIFIED
:DEGREES
98
root -8.573928 17.156675 -14.364340 -0.677957 6.098294 2.765623
lowerback -10.861993 2.716947 -2.012884 
upperback 2.350703 4.008448 -0.902654 
thorax 8.531390 1.875823 0.894263 
lowerneck -1.050865 -1.905415 3.767057 
upperneck 14.706849 -3.176312 -2.974819 
head 4.467670 -1.839636 -1.691528 
rclavicle 0.000000 0.000000 
rhumerus -28.294092 -3.948733 -88.716375 
rradius 48.957393 
rwrist 17.652800 
rhand -18.668776 -18.105170 
rfingers 0.000000 
rthumb 7.624876 -47.947726 
lclavicle 0.000000 0.000000 
lhumerus -47.502804 32.819721 61.335771 
lradius 26.851675 
lwrist -55.443036 
lhand -19.319002 0.768396 
lfingers 0.000000 
lthumb 6.997198 30.632741 
rfemur 3.932163 6.454878 25.219099 
rtibia 25.931317 
rfoot -23.396161 -2.484186 
rtoes -24.949723 
lfemur -54.915489 1.315726 -18.795281 
ltibia 48.101661 
lfoot -15.108684 -0.518814 
ltoes -40.106520 
99
root -8.551980 17.136366 -14.243194 -0.466806 5.891676 2.614282
lowerback -11.110248 2.740709 -1.923820 
upperback 2.223990 4.029471 -0.895847 
thorax 8.542637 1.889688 0.865281 
lowerneck -1.064540 -1.908950 3.923791 
upperneck 14.865653 -3.192750 -3.085568 
head 4.513595 -1.851788 -1.755398 
rclavicle 0.000000 0.000000 
rhumerus -28.440161 -4.262118 -88.713198 
rradius 48.956544 
rwrist 17.788708 
rhand -18.587590 -18.072330 
rfingers 0.000000 
rthumb 7.703178 -47.912067 
lclavicle 0.000000 0.000000 
lhumerus -47.825017 32.686048 61.138421 
lradius 26.849168 
lwrist -55.399178 
lhand -19.354312 0.713465 
lfingers 0.000000 
lthumb 6.963098 30.578957 
rfemur 4.038425 6.360330 25.368654 
rtibia 26.078516 
rfoot -23.488722 -2.473562 
rtoes -24.923888 
lfemur -54.246786 1.222756 -18.548033 
ltibia 46.780633 
lfoot -15.191304 -0.280657 
ltoes -40.085632 
100
root -8.529948 17.120595 -14.121017 -0.396643 5.517660 2.522570
lowerback -11.209621 2.762893 -1.923942 
upperback 2.178309 4.052946 -0.826927 
thorax 8.544622 1.898240 0.946529 
lowerneck -1.141205 -1.834800 3.874618 
upperneck 14.955803 -3.099096 -3.076502 
head 4.558243 -1.810213 -1.743933 
rclavicle 0.000000 0.000000 
rhumerus -28.532525 -4.166771 -88.688227 
rradius 48.972555 
rwrist 17.814498 
rhand -18.644061 -18.019468 
rfingers 0.000000 
rthumb 7.648735 -47.861165 
lclavicle 0.000000 0.000000 
lhumerus -48.193319 32.840203 60.914835 
lradius 26.802937 
lwrist -55.456635 
lhand -19.438279 0.658705 
lfingers 0.000000 
lthumb 6.882042 30.526862 
rfemur 4.369892 6.533909 25.486206 
rtibia 26.148888 
rfoot -23.624165 -2.488146 
rtoes -24.780128 
lfemur -53.348501 1.120436 -18.282560 
ltibia 45.480239 
lfoot -15.291910 0.078414 
ltoes -39.387023 
101
root -8.504936 17.096801 -13.997152 -0.292582 5.313029 2.389819
lowerback -11.323090 2.778079 -1.808893 
upperback 2.127772 4.058890 -0.836402 
thorax 8.563893 1.906684 0.878129 
lowerneck -1.252688 -1.796802 4.011675 
upperneck 15.090416 -3.060778 -3.125713 
head 4.616777 -1.789836 -1.784530 
rclavicle 0.000000 0.000000 
rhumerus -28.635350 -4.287852 -88.746525 
rradius 49.093098 
rwrist 17.677388 
rhand -18.593038 -18.013122 
rfingers 0.000000 
rthumb 7.698012 -47.853020 
lclavicle 0.000000 0.000000 
lhumerus -48.481865 32.800761 60.677892 
lradius 26.786812 
lwrist -55.443099 
lhand -19.513793 0.600201 
lfingers 0.000000 
lthumb 6.809198 30.470689 
rfemur 4.653969 6.551483 25.651091 
rtibia 26.247911 
rfoot -23.732828 -2.611380 
rtoes -25.222923 
lfemur -52.538029 1.158732 -18.229988 
ltibia 44.211931 
lfoot -15.212755 0.597278 
ltoes -41.104496 
102
root -8.480303 17.080505 -13.873536 -0.145279 5.049844 2.351097
lowerback -11.483160 2.786969 -1.788174 
upperback 2.095339 4.073293 -0.856497 
thorax 8.623870 1.914193 0.855942 
lowerneck -1.296904 -1.756167 4.099858 
upperneck 15.083311 -3.005897 -3.158468 
head 4.622200 -1.759344 -1.807548 
rclavicle 0.000000 0.000000 
rhumerus -28.698617 -4.262629 -88.826170 
rradius 49.300050 
rwrist 17.319226 
rhand -18.650267 -18.129225 
rfingers 0.000000 
rthumb 7.642723 -47.971146 
lclavicle 0.000000 0.000000 
lhumerus -48.789924 32.769985 60.527316 
lradius 26.894576 
lwrist -55.366030 
lhand -19.406253 0.660378 
lfingers 0.000000 
lthumb 6.912990 30.527526 
rfemur 4.905043 6.613280 25.657369 
rtibia 26.349325 
rfoot -23.674074 -2.577730 
rtoes -25.501176 
lfemur -51.690976 0.915593 -18.006362 
ltibia 42.909973 
lfoot -15.214173 0.874114 
ltoes -39.380458 
